<?xml version="1.0" standalone="no"?>
<!DOCTYPE svg PUBLIC "-//W3C//DTD SVG 1.1//EN" "http://www.w3.org/Graphics/SVG/1.1/DTD/svg11.dtd" >
<svg xmlns="http://www.w3.org/2000/svg">
<metadata>
Created by FontForge 20120731 at Sat Nov 15 15:30:39 2014
 By Ads
</metadata>
<defs>
<font id="iconfont" horiz-adv-x="1024" >
  <font-face 
    font-family="iconfont"
    font-weight="500"
    font-stretch="normal"
    units-per-em="1024"
    panose-1="2 0 6 3 0 0 0 0 0 0"
    ascent="812"
    descent="-212"
    x-height="792"
    bbox="-0.0277778 -212.14 1033 826"
    underline-thickness="50"
    underline-position="-100"
    unicode-range="U+0078-F0067"
  />
<missing-glyph horiz-adv-x="374" 
d="M34 0v682h272v-682h-272zM68 34h204v614h-204v-614z" />
    <glyph glyph-name=".notdef" horiz-adv-x="374" 
d="M34 0v682h272v-682h-272zM68 34h204v614h-204v-614z" />
    <glyph glyph-name=".null" horiz-adv-x="0" 
 />
    <glyph glyph-name="nonmarkingreturn" horiz-adv-x="341" 
 />
    <glyph glyph-name="x" unicode="x" horiz-adv-x="1001" 
d="M281 543q-27 -1 -53 -1h-83q-18 0 -36.5 -6t-32.5 -18.5t-23 -32t-9 -45.5v-76h912v41q0 16 -0.5 30t-0.5 18q0 13 -5 29t-17 29.5t-31.5 22.5t-49.5 9h-133v-97h-438v97zM955 310v-52q0 -23 0.5 -52t0.5 -58t-10.5 -47.5t-26 -30t-33 -16t-31.5 -4.5q-14 -1 -29.5 -0.5
t-29.5 0.5h-32l-45 128h-439l-44 -128h-29h-34q-20 0 -45 1q-25 0 -41 9.5t-25.5 23t-13.5 29.5t-4 30v167h911zM163 247q-12 0 -21 -8.5t-9 -21.5t9 -21.5t21 -8.5q13 0 22 8.5t9 21.5t-9 21.5t-22 8.5zM316 123q-8 -26 -14 -48q-5 -19 -10.5 -37t-7.5 -25t-3 -15t1 -14.5
t9.5 -10.5t21.5 -4h37h67h81h80h64h36q23 0 34 12t2 38q-5 13 -9.5 30.5t-9.5 34.5q-5 19 -11 39h-368zM336 498v228q0 11 2.5 23t10 21.5t20.5 15.5t34 6h188q31 0 51.5 -14.5t20.5 -52.5v-227h-327z" />
    <glyph glyph-name="uni3451" unicode="&#x3451;" horiz-adv-x="1000" 
d="M657 67l-26 55q-2 6 -3.5 25.5t-1.5 35.5v16q58 54 89 156h1h1q15 -2 29 15.5t21 41t8.5 47.5t-7.5 36q-12 16 -28 8q3 44 -1.5 82.5t-18 73.5t-39.5 59.5t-64 33.5q-8 14 -19 23.5t-21 14t-27.5 7t-27 3t-31.5 0.5h-1v0h-1q-50 0 -102 -19.5t-95.5 -52t-73.5 -71.5
q6 -12 9.5 -16.5t8.5 -9t9 -9.5q-11 -45 -5 -122q-18 14 -32 -5q-10 -12 -8 -36t9 -47.5t21 -41t29 -15.5q3 0 6 1q31 -103 90 -157q0 -62 -6 -77l-25 -55q-109 -38 -228 -105q-44 -25 -70 -68.5t-26 -93.5h1000q0 30 -10 58t-29 51.5t-46 39.5q-48 29 -112.5 58.5
t-105.5 44.5z" />
    <glyph glyph-name="uni349D" unicode="&#x349d;" horiz-adv-x="1000" 
d="M195 733q9 7 17.5 12t18.5 7q27 7 48 -9q4 -3 17 -21l28 -42l26 -40q14 -21 27.5 -42t27.5 -42q7 -12 7 -28q-1 -12 -5 -23t-10 -22q-37 -65 -42 -73q49 -68 147 -163q59 -56 104 -88q5 3 10.5 6.5t10 6t11.5 6t10.5 6t11 6.5t10.5 6q7 4 10.5 5.5t9.5 4.5t11 5t10.5 3
t11 1.5t11 0t10.5 -2.5t9 -5q108 -70 178 -117q13 -10 17.5 -27.5t-1.5 -32.5q-2 -9 -6.5 -16t-13.5 -18.5t-10 -13.5q-32 -39 -63 -68q-2 -1 -4 -3q-11 -9 -17 -14t-16.5 -10t-20.5 -6h-5q-11 0 -22 1.5t-21.5 3.5t-21 4.5t-20.5 6t-20 7.5q-79 31 -170 99q-83 63 -175 155
q-143 146 -211 269q-50 94 -53 166v6q1 8 4 15.5t10 17.5t8.5 11.5t12.5 14.5q36 39 83 74zM219 708q-48 -36 -82 -73q-20 -25 -23 -33q-2 -3 -1 -10q2 -49 31 -114q7 -15 15.5 -30.5t18.5 -32.5q79 -128 237 -280q75 -70 138 -115q77 -55 145 -82q56 -22 97 -21
q3 1 6.5 2.5t6.5 3.5t6 4.5t5.5 4.5t5.5 5t6 4q20 20 39.5 42t37.5 46q10 15 6 28q-1 2 -2 3.5t-2 2.5t-2.5 1.5t-3 2t-2.5 1.5q-63 42 -163 108q-11 9 -37 -2q-8 -5 -16.5 -9.5t-16 -9t-16.5 -9.5t-16 -9t-17 -9.5t-16 -9.5q-61 40 -157 134q-93 95 -133 156q28 48 49 87
q6 11 9.5 19t4.5 17q0 4 -7 16q-56 85 -106 159l-2 4q-3 4 -4.5 5.5t-4.5 2.5q-8 3 -17 -0.5t-17 -9.5z" />
    <glyph glyph-name="uniE602" unicode="&#xe602;" 
d="M595 299q-11 0 -20 -9t-9 -20t9 -20t20 -9q16 0 26 8.5t10 20.5q0 7 -4.5 13.5t-13 11t-18.5 4.5zM755 299q-7 0 -14 -4.5t-11 -11t-4 -13.5t4 -14t11 -11t14 -4q16 0 26 8.5t10 20.5q0 7 -4.5 13.5t-13 11t-18.5 4.5zM296 510q-17 0 -30 -10.5t-13 -25.5q0 -8 3.5 -15
t9.5 -12t14 -7.5t16 -2.5q17 0 27 10t10 27q0 10 -4.5 18.5t-13 13t-19.5 4.5zM500 437q11 0 19 4.5t12.5 13t4.5 19t-4.5 19t-12.5 13t-19 4.5q-17 0 -30.5 -10.5t-13.5 -25.5q0 -26 29 -35q8 -2 15 -2zM511 809q-104 0 -198.5 -40.5t-162.5 -109t-108.5 -162.5t-40.5 -198
t40.5 -198.5t108.5 -162.5t162.5 -108.5t198.5 -40.5t198.5 40.5t162.5 108.5t108.5 162.5t40.5 198.5t-40.5 198t-108.5 162.5t-162.5 109t-198.5 40.5zM391 139q-28 0 -102 14l-102 -51l29 88q-116 81 -116 196q0 104 85 176t206 72q107 0 191 -58.5t102 -146.5
q-15 2 -28 2q-50 0 -96 -18t-79 -49t-52.5 -73.5t-19.5 -89.5q0 -11 1 -21.5t3 -20t5 -19.5q-15 -1 -27 -1zM820 37l22 -73l-80 44q-58 -15 -87 -15q-104 0 -176 61.5t-72 149.5q0 58 33 106.5t90 76.5t125 28q99 0 173 -62t74 -149q0 -91 -102 -167z" />
    <glyph glyph-name="uniE603" unicode="&#xe603;" 
d="M333 437h326v-136h-326v136zM511 812q-104 0 -198.5 -40.5t-163 -109t-109 -163t-40.5 -198.5t40.5 -198.5t109 -163t163 -108.5t198.5 -40t198.5 40t163 108.5t108.5 163t40 198.5t-40 198.5t-108.5 163t-163 109t-198.5 40.5zM224 627h571v-54h-571v54zM740 491v-244
h-489v244h489zM795 30h-598v54h187q-6 19 -14 36t-13.5 26t-18.5 27.5t-18 25.5l64 23q37 -55 67 -138h121q6 14 29.5 63t33.5 78l69 -28q-7 -17 -27 -50t-31 -63h149v-54z" />
    <glyph glyph-name="uniE606" unicode="&#xe606;" 
d="M957 401q-5 15 -17 25.5t-27 12.5l-237 38l-113 239q-16 32 -51 32t-51 -32l-113 -239l-237 -38q-34 -5 -44 -38l-3 -17q0 -7 2 -14t5.5 -13.5t8.5 -12.5l175 -174l-50 -251q-7 -35 22 -56q15 -11 33 -11q15 0 27 7l225 125l225 -125q6 -3 13 -5t14 -2q6 0 11.5 1t11 3.5
t10.5 6.5q29 21 22 56l-50 251l175 174q8 8 12 18.5t4 21.5q0 9 -3 17z" />
    <glyph glyph-name="uniE607" unicode="&#xe607;" 
d="M823 342q1 4 2 11t-5.5 27t-23.5 40q1 0 2.5 13.5t1 37.5t-5.5 52t-21 61.5t-42 61.5q-16 17 -22 23.5t-28.5 24t-43 26t-56.5 16.5t-77 8q-21 0 -40.5 -2.5t-35 -5t-31 -8t-26 -9.5t-23 -12t-19 -12.5t-16.5 -13.5t-13.5 -12t-12 -12t-9.5 -11q-26 -26 -42.5 -59
t-21 -61.5t-5.5 -53t2 -38.5l2 -14q-17 -20 -24 -39t-5 -29l2 -10q-47 -48 -76.5 -94t-38 -76.5t-10.5 -54.5t2 -35l3 -11q10 -22 23.5 -26.5t25.5 3.5t23 20t17.5 21.5t6.5 10.5q-2 -42 63 -125q-22 -11 -39 -21.5t-28 -19.5t-18 -17.5t-9.5 -16t-1.5 -14t4.5 -12
t9.5 -10.5t13 -9t15 -7q9 -3 20.5 -5.5t20.5 -3.5t17 -1.5t13 -0.5h4q64 2 117 12t74 19l21 8q4 -1 8.5 -2.5t9.5 -2.5t9.5 -1.5t9.5 -1.5t9 -1q27 2 47 9q8 -3 23 -9t70 -17t119 -13h12q8 0 28 3t35 8q16 6 26.5 14t14 19.5t-3 25t-29.5 31.5t-62 37q7 9 18 24t28.5 49
t16.5 52l22 -30q48 -56 73 1q1 0 4.5 11t2 35t-10.5 54.5t-38.5 76.5t-76.5 94z" />
    <glyph glyph-name="uniE608" unicode="&#xe608;" 
d="M1024 454q0 -43 -12 -83t-33.5 -74t-50.5 -61l-320 -320q-21 -21 -33 -32t-30 -21.5t-33 -10.5t-33 10.5t-30 21.5t-33 32l-320 320q-45 41 -70.5 97.5t-25.5 120.5q0 122 86 208t208 86q64 0 120.5 -25.5t97.5 -70.5q41 45 97.5 70.5t120.5 25.5q122 0 208 -86t86 -208z
" />
    <glyph glyph-name="uniE609" unicode="&#xe609;" 
d="M992 -59l-242 206q-38 33 -74 32q44 51 68 115t24 134q0 104 -51.5 192.5t-140 140t-192.5 51.5t-192.5 -51.5t-140 -140t-51.5 -192.5q0 -78 30.5 -149t82 -122.5t122.5 -82t149 -30.5q142 0 249 92q-1 -36 32 -74l206 -242q27 -30 64.5 -32t64 24.5t24.5 64t-32 64.5z
M384 172q-106 0 -181 75t-75 181t75 181t181 75t181 -75t75 -181t-75 -181t-181 -75z" />
    <glyph glyph-name="uniE60A" unicode="&#xe60a;" 
d="M897 -28l27 -91l-99 55q-73 -18 -109 -18q-129 0 -218.5 77t-89.5 187q0 71 40.5 132t111.5 96.5t156 35.5q60 0 116.5 -21t98.5 -56.5t67.5 -84.5t25.5 -102q0 -114 -127 -210zM616 300q-13 0 -24.5 -11.5t-11.5 -25t11.5 -25t24.5 -11.5q20 0 33 11t13 25.5t-13 25.5
t-33 11zM816 300q-7 0 -13.5 -3t-11.5 -8t-8 -12t-3 -13q0 -14 11 -25.5t25 -11.5q13 0 23.5 5.5t16 13.5t5.5 18q0 14 -13 25t-32 11zM385 177q0 -38 11 -76q-4 0 -8 -0.5t-8 -0.5h-9h-9q-13 0 -25 0.5t-27 3t-22.5 4t-27 5.5t-25.5 5l-126 -64l36 110q-144 102 -145 245
q0 85 49 156.5t132 112.5t181 41q88 0 166.5 -33t131.5 -91.5t68 -131.5q-19 2 -35 2q-129 0 -218.5 -84t-89.5 -204zM245 564q-8 0 -16 -2t-15 -6t-12.5 -9.5t-8.5 -12.5t-3 -15q0 -20 16.5 -33t38.5 -13q20 0 32.5 12.5t12.5 33.5q0 5 -1 10.5t-3 10t-5 8.5t-7 7t-8.5 5
t-10 3t-10.5 1zM498 564q-21 0 -37.5 -13t-16.5 -32.5t16.5 -32.5t37.5 -13t33.5 12.5t12.5 33t-12.5 33t-33.5 12.5z" />
    <glyph glyph-name="uniE60C" unicode="&#xe60c;" 
d="M938 154l-383 373q-18 18 -44 18h-1q-26 0 -45 -18l-382 -373q-19 -18 -19.5 -44.5t17.5 -45.5q13 -12 29 -16.5t32.5 -0.5t29.5 16l338 330l339 -330q19 -18 45.5 -18t45 19t18 45.5t-19.5 44.5z" />
    <glyph glyph-name="uniE613" unicode="&#xe613;" 
d="M429 736q32 7 65 8.5t65.5 -2t64 -12t61.5 -21.5t58 -30t53 -38.5t46 -45.5t38.5 -52t30.5 -59q14 -33 22.5 -68.5t10.5 -71.5t-1.5 -72.5t-13 -71t-25.5 -68t-37 -62.5q-48 -72 -125.5 -119t-163.5 -59t-174 9q-94 23 -170 88t-116.5 156.5t-34.5 187.5q3 144 103 260.5
t243 142.5zM484 699q-113 -9 -207 -82t-129 -181q-23 -69 -19.5 -139t33.5 -136.5t81 -115.5q72 -73 175 -100.5t201 3.5q63 17 117 55.5t92.5 92t55.5 115.5q31 98 3.5 200t-100.5 174q-15 15 -31 28t-33.5 24.5t-36 21t-38 16.5t-40 12.5t-41 8.5t-41.5 3.5t-42 -0.5z
M314 514q43 45 107.5 55.5t124.5 -15.5t90 -80q33 -55 29.5 -117t-38.5 -116q19 -18 47 -45l52 -53q25 -25 46 -47q-4 -4 -17.5 -16t-17.5 -16q-19 19 -67.5 68t-74.5 76q-31 -24 -69 -36t-76 -11t-74.5 16.5t-63.5 44.5q-61 57 -60 146t62 146zM429 524q-31 -5 -58 -22.5
t-44 -43.5t-25 -56t-3 -61.5t23 -57.5q17 -31 47 -50.5t64 -23.5t67 3.5t61.5 29t42.5 54.5q17 33 18 68.5t-16.5 68t-43 56.5t-61.5 34t-72 1z" />
    <glyph glyph-name="uniE614" unicode="&#xe614;" 
d="M575 237q-73 -72 -130 -109.5t-82 -11.5l-9 9q-19 19 -29 27.5t-28.5 17t-35.5 5.5t-43 -15.5t-58 -38.5q-19 -15 -32 -30t-18 -29t-7.5 -25.5t2.5 -24.5t9 -22t15 -21.5t17.5 -19.5t19.5 -19t18 -17q18 -18 53.5 -22t85.5 9t107 40.5t124 76t130 111.5t111.5 130t76 124
t40.5 107t9 85.5t-22 53.5q-4 4 -19 20t-21.5 22.5t-22 18.5t-25.5 15t-26 5.5t-29.5 -4t-30.5 -19t-34 -34.5q-26 -32 -38.5 -58t-15.5 -43t5.5 -35.5t17 -28.5t27.5 -29q2 -1 2.5 -2t2 -2t2.5 -2.5t2 -2.5q9 -9 10 -22.5t-6.5 -30.5t-19.5 -36t-29.5 -40.5t-35.5 -41
t-40 -41.5z" />
    <glyph glyph-name="uniE618" unicode="&#xe618;" 
d="M843 142q-42 61 -42 137q0 35 10 67t30 60q11 17 28.5 35t41.5 38q-8 10 -16 18.5t-16 16.5t-16 14.5t-16 12.5q-58 40 -131 40q-15 0 -32 -2.5t-35.5 -7t-38.5 -11.5q-61 -21 -88 -21q-6 0 -14 1t-18.5 3.5t-24 6t-28.5 7.5q-65 19 -109 19q-106 0 -175 -89
q-70 -90 -70 -230q0 -149 91 -310q92 -159 185 -159q31 0 81 21q25 10 47 15t41 5q40 0 93 -19q28 -10 49 -15t37 -5q79 0 158 121q18 26 32 52.5t25 51.5t19 49q-55 18 -98 78zM815 -56q-62 -94 -108 -94q-5 0 -12.5 1t-21.5 5t-31 10q-32 12 -60.5 17.5t-53.5 5.5
t-52.5 -6t-58.5 -19q-16 -6 -29 -10t-19 -5t-10 -1q-59 0 -133 129q-82 147 -82 280q0 120 56 193q52 65 128 65q7 0 15 -0.5t16.5 -1.5t18.5 -3t20 -4.5t22 -6.5q72 -20 102 -20q19 0 45.5 5.5t61.5 18.5q53 17 87 17q54 0 97 -29q2 -1 4 -2.5t4 -3.5t4 -3
q-10 -11 -18.5 -21t-15.5 -20q-17 -24 -28 -50.5t-16.5 -54.5t-5.5 -57q0 -95 53 -172q32 -45 71 -72q-20 -45 -50 -91zM568 573q-23 -7 -64 -10q2 92 48 158q23 33 61.5 55.5t92.5 35.5q0 -2 1 -6.5t2 -7.5v-6v-6q0 -19 -4.5 -40t-13.5 -44q-18 -46 -57 -84
q-33 -34 -66 -45z" />
    <glyph glyph-name="uniE629" unicode="&#xe629;" 
d="M672 -155q-210 0 -425 233q-217 235 -186 431q6 36 19 67t32 55t30.5 35.5t28.5 26.5q6 5 7 6l30 25q19 16 39.5 23.5t41.5 7.5q70 0 131 -90l22 -33q22 -32 26.5 -63t-7.5 -58t-30 -49t-44 -44l-30 -25q-4 -3 -14 -10q-16 -12 -16.5 -17t9 -28t30.5 -55.5t45 -54.5
q16 -14 37 -30.5t41 -30.5t38 -26t30 -18.5t15 -6.5q4 0 8 2t11 8q3 3 5.5 5t4.5 3l29 24q10 8 27.5 30t34 37t31.5 15q63 0 136 -59l31 -26q75 -59 77 -115q1 -46 -41 -86l-30 -25q-99 -83 -220 -84h-4z" />
    <glyph glyph-name="uniE62C" unicode="&#xe62c;" 
d="M595 -148h353v111q-3 81 -16 102q-7 10 -19 19.5t-25.5 17t-34 16.5t-37.5 15.5t-42.5 16.5t-43.5 17q-87 37 -108 49l-1 84q1 0 1.5 1t3.5 3l4 6q3 2 6 7t6 11t6.5 14t6 17t5.5 20.5t4 24.5q10 -3 20 5.5t16.5 21.5t6.5 22q1 12 -0.5 27t-8.5 27.5t-19 10.5q10 69 7 92
q-5 54 -53.5 96t-120.5 42q-37 0 -69 -12t-54 -32t-35.5 -44.5t-15.5 -49.5q-1 -5 -1 -13t0.5 -16t1.5 -19t2.5 -21t3.5 -23q-9 2 -15.5 -5t-9 -18.5t-3.5 -22t0 -19.5q1 -16 15 -34.5t28 -14.5q3 -22 8.5 -41t11 -30t11 -19t8.5 -11l4 -3l-1 -84h-1l-3 -2l-5 -2
q-3 -2 -7.5 -4.5t-10.5 -5t-14.5 -6.5t-18 -8t-22 -9.5t-26.5 -11.5q-19 -7 -62.5 -24.5t-63.5 -26t-43 -23t-33 -28.5q-16 -26 -16 -213h329h190z" />
    <glyph glyph-name="uniE631" unicode="&#xe631;" 
d="M710 459q-10 2 -16 5.5t-7 7t0 6.5t2 5l2 2q4 7 9 18t4 37.5t-20 45.5q-15 15 -39.5 19.5t-49 1t-46.5 -9.5t-36 -12l-13 -6q-10 -2 -16.5 -3.5t-10.5 -1t-6.5 2.5t-3 4.5t0 8t1.5 9.5t2.5 11.5t2.5 13.5q0 16 -2.5 29.5t-11.5 28.5t-24.5 22.5t-43.5 7t-66 -12.5
q-37 -13 -77 -39t-67.5 -50.5t-54 -53.5t-35 -40t-13.5 -17q-71 -93 -69 -177l1 -7q2 -26 10 -49t20 -42t27.5 -35.5t34.5 -29.5t39 -23.5t43 -19t46 -14.5t47.5 -10.5t46.5 -7.5t46 -5q34 -2 70 -0.5t73 9t72.5 18t69 27t61.5 35.5t50.5 44t36.5 53q18 38 18.5 71
t-11.5 53.5t-31 36.5t-36 23t-30 10zM379 129q-117 -5 -199.5 45t-82.5 126q0 75 82 130t200 60q119 5 200 -39t81 -118q0 -50 -37.5 -96t-102.5 -75.5t-141 -32.5zM348 423q-32 -4 -57 -15t-39.5 -24.5t-24 -31.5t-13.5 -32.5t-5 -29.5t-0.5 -20t0.5 -8v-6q0 -3 2 -12
t6 -17t13 -17.5t21 -16.5q71 -34 133.5 -20.5t100.5 61.5q14 18 19 44.5t-2 53.5t-24.5 49.5t-51.5 34.5t-78 7zM308 222q-22 -3 -37.5 8t-15.5 29t14.5 33.5t35.5 17.5q17 2 29.5 -3t19.5 -14.5t7 -21.5q0 -18 -15.5 -32.5t-37.5 -16.5zM400 299q-7 -6 -15 -5t-12 7
q-3 4 -3 9.5t2.5 11t7.5 8.5q5 4 11 5t10.5 -1t6.5 -6q4 -7 2 -15.5t-10 -13.5zM786 521q10 0 17 6t8 15l1 3q4 34 -2 60t-18 40.5t-27.5 24t-32 12.5t-30.5 3.5t-22 -0.5l-9 -1q-11 0 -18.5 -7.5t-7.5 -17.5q0 -5 1.5 -8.5t4 -6.5t5.5 -5.5t7 -3.5t8 -1q19 4 33 3.5
t24.5 -5t17 -11t10 -14.5t5.5 -16.5t2 -16.5t-0.5 -14t-1.5 -10l-1 -4q0 -7 3.5 -12.5t9.5 -9t13 -3.5zM768 814q-55 13 -129 -1l-1 -1h-2l-1 -1q-6 -2 -11 -5t-8.5 -8t-5.5 -10.5t-2 -11.5q0 -10 5 -18.5t13.5 -13.5t18.5 -5h1q1 0 4 1h4q3 1 6 1.5t6 1.5t6.5 2t6.5 2
q6 0 19 1.5t35.5 -4t44.5 -13.5t46 -27.5t40 -46.5q29 -63 11 -121q0 -2 -1.5 -5.5t-3.5 -12.5t-2 -17q0 -15 10.5 -24t26.5 -9t24.5 6t11.5 25q13 41 15 79t-5 67t-21.5 54.5t-33 44t-40.5 33t-44 23.5t-44 14z" />
    <glyph glyph-name="uniE633" unicode="&#xe633;" 
d="M35 826h893v-98h-893v98zM113 243h737v383h-737v-383zM220 528h524v-188h-524v188zM781 188l-107 38q-21 -56 -45.5 -107t-51.5 -97h-187q-47 120 -105 204l-99 -38q61 -89 99 -166h-275v-97h943v97h-262q48 72 90 166z" />
    <glyph glyph-name="uniE635" unicode="&#xe635;" 
d="M365 592q-5 0 -9.5 -0.5t-9.5 -2t-9 -4.5q-11 -6 -25.5 -15.5t-39 -32.5t-25.5 -38q-6 -115 149 -298q65 -77 135 -133t135 -63q15 -2 41 18t39.5 34.5t19.5 21.5q12 16 11.5 32t-11.5 25q-62 51 -107 84q-7 5 -17 6h-10q-4 0 -8.5 -1.5t-9.5 -3.5q-6 -3 -22.5 -10.5
t-29.5 -13.5q-12 10 -31 29.5t-45 50.5q-45 53 -66 89q24 36 31 47q8 12 10 24t-3 21q-38 73 -66 119q-4 6 -11 10t-16 5z" />
    <glyph glyph-name="uniE63C" unicode="&#xe63c;" 
d="M0 659l655 -1l-72 -95l-489 -1v-627h660v326l125 121l1 -572h-880v849zM421 316l384 384l156 -155l-384 -384zM831 726l46 49q10 3 25.5 5t49.5 -1.5t50 -19.5q8 -8 14.5 -20.5t9.5 -25t5 -26t2 -25.5v-22v-15l-1 -5l-46 -50zM396 291l155 -156l-249 -83z" />
    <glyph glyph-name="uniE640" unicode="&#xe640;" 
d="M338 437q19 0 32 13t13 32v158q0 18 -13 31.5t-32 13.5q-13 0 -23 -6t-16.5 -16.5t-6.5 -22.5v-158q0 -9 4 -17.5t10 -14.5t14.5 -9.5t17.5 -3.5zM684 437q18 0 31.5 13t13.5 32v158q0 9 -3.5 17t-9.5 14t-14.5 10t-17.5 4q-13 0 -23.5 -6t-16.5 -16.5t-6 -22.5v-158
q0 -30 28 -42q9 -3 18 -3zM602 583h-183v-54h183v54zM802 583h-19v-54h19q15 0 26 -10.5t11 -25.5v-109h-656v109q0 10 5 18t13.5 13t17.5 5h36v54h-36q-18 0 -35 -7t-29 -19.5t-19.5 -29t-7.5 -34.5v-522q0 -37 27 -63.5t64 -26.5h583q38 0 64.5 26.5t26.5 63.5v522
q0 37 -26.5 63.5t-64.5 26.5zM839 -29q0 -15 -11 -25.5t-26 -10.5h-583q-7 0 -13.5 3t-11.5 7.5t-8 11.5t-3 14v360h656v-360zM329 180q19 0 32 13t13 31.5t-13 32t-32 13.5q-10 0 -18 -3.5t-14.5 -9.5t-10 -14.5t-3.5 -17.5q0 -19 13.5 -32t32.5 -13zM511 180q19 0 32 13
t13 31.5t-13 32t-32 13.5q-10 0 -18 -3.5t-14.5 -9.5t-10 -14.5t-3.5 -17.5q0 -19 13.5 -32t32.5 -13zM329 0q19 0 32 13t13 32q0 12 -6 22.5t-16.5 16.5t-22.5 6q-19 0 -32.5 -13.5t-13.5 -31.5q0 -31 29 -42q8 -3 17 -3zM511 0q19 0 32 13t13 32q0 12 -6 22.5t-16.5 16.5
t-22.5 6q-19 0 -32.5 -13.5t-13.5 -31.5q0 -31 29 -42q8 -3 17 -3zM693 180q19 0 32 13t13 31.5t-13 32t-32 13.5q-13 0 -23.5 -6t-16.5 -16.5t-6 -22.5q0 -9 3.5 -17.5t10 -14.5t14.5 -9.5t18 -3.5z" />
    <glyph glyph-name="uniE641" unicode="&#xe641;" 
d="M511 252q69 0 118.5 49t49.5 118.5t-49.5 119t-119 49.5t-118.5 -49.5t-49 -118.5q0 -23 6 -45t16.5 -40t26.5 -34t34 -26.5t40 -16.5t45 -6zM511 560q58 0 99 -41t41 -99t-41 -99t-99 -41t-99 41t-41 99t41 99t99 41zM511 749q-55 0 -106 -17t-92.5 -48t-72.5 -72
t-48 -92.5t-17 -106.5q0 -57 19.5 -119.5t46 -113.5t70.5 -113t75.5 -100t78.5 -92l3 -3q2 -2 6.5 -5.5t9.5 -6.5t12 -5.5t14 -2.5h2q11 0 22.5 6t15.5 10t6 7q83 95 134.5 162.5t104 176t52.5 199.5q0 92 -45 169.5t-122.5 122t-168.5 44.5zM514 -88q0 -1 -1.5 -1.5
t-2.5 -1.5l-2 2q-1 1 -1 2q-31 35 -48.5 55.5t-50.5 62t-53.5 71.5t-47 73.5t-41 79.5t-25 78t-10.5 80q0 76 37.5 140.5t102 102t140.5 37.5q23 0 45.5 -3.5t43 -10.5t40 -17.5t36.5 -23t32.5 -28t28.5 -32.5t23 -36.5t17 -40.5t10.5 -43t3.5 -45q0 -38 -10.5 -80
t-25.5 -78t-41 -79.5t-46.5 -73.5t-54 -71.5t-51 -62.5t-48.5 -56zM514 -88z" />
    <glyph glyph-name="uniE647" unicode="&#xe647;" 
d="M349 168l-265 265q-20 -64 -20 -132q0 -74 24 -144h271q-6 6 -10 11zM937 446h-271q5 -5 10 -11l265 -265q20 64 20 131q0 75 -24 145zM908 512q-33 63 -84 112t-114 80l-191 -192h389zM117 90q68 -127 196 -190l191 190h-387zM723 286v-381q25 14 47.5 30t43 34.5t39 40
t34 44.5t27.5 48l-191 191v-7zM512 750q-74 0 -144 -24v-271l275 275q-16 5 -31.5 8.5t-32 6t-33.5 4t-34 1.5zM381 -127q64 -20 131 -20q75 0 144 24v270q-1 -1 -3 -2.5t-3.5 -3.5t-3.5 -3zM301 697q-62 -33 -110.5 -83.5t-79.5 -113.5l190 -190v387z" />
    <glyph glyph-name="uniE65F" unicode="&#xe65f;" 
d="M839 300q0 -89 -44 -164t-119 -119t-164 -44t-164 44t-119 119t-44 164t44 164t119 119t164 44t164 -44t119 -119t44 -164zM507 366q6 41 -10 53q-6 5 -15.5 7t-31.5 -5t-46 -28q-19 -17 -33.5 -31t-29 -33.5t-21.5 -37t-6.5 -38.5t11.5 -40q26 -45 63 -58t94 -12
q31 0 69.5 15t68.5 38t35 44q7 31 -6.5 48.5t-38.5 20.5q-2 -1 -1 7t3 17.5t-1.5 20t-13.5 15.5q-22 11 -36 10.5t-54 -13.5zM647 333q3 4 5.5 9.5t0.5 22t-13 32.5q-26 35 -59 28q-11 -2 -9 -14l2 -4q1 -2 3 -3.5t4.5 -2t4.5 0.5q18 3 34.5 -19.5t6.5 -36.5q-6 -10 4 -16
q3 -2 6 -2q7 1 10 5zM703 320q2 3 3.5 8t3.5 19t1 27.5t-7.5 31.5t-19 32.5t-29.5 23.5t-31 12t-28.5 3.5t-20.5 0t-10 -1.5q-12 -3 -9.5 -14.5t14.5 -9.5q2 1 7 1.5t17 0t23.5 -2.5t25 -9.5t23.5 -19t15 -25.5t6 -24.5t-1 -22t-3 -15.5t-2 -7q-4 -11 7 -15q2 -1 4 -1
q8 0 11 8zM584 241q0 -32 -34.5 -55t-83.5 -23q-19 0 -37 4t-32.5 11t-25.5 16.5t-17 21.5t-6 25q0 32 34.5 55t83.5 23t83.5 -23t34.5 -55zM451 278q-26 0 -44.5 -15t-18.5 -36q0 -10 5 -19.5t13.5 -16t20.5 -10.5t24 -4q27 0 45.5 14.5t18.5 35.5q0 10 -5 19.5t-13.5 16.5
t-20.5 11t-25 4zM402 211q-12 0 -21 -6.5t-9 -15.5t9 -15.5t21 -6.5v44zM448 232q-25 -5 -30 -23q0 -4 2 -8t6 -7t10 -5t12 -2v45z" />
    <glyph glyph-name="uniE66B" unicode="&#xe66b;" 
d="M667 472q25 0 49.5 -10.5t45.5 -30.5q-15 -12 -27 -27.5t-20 -32.5q-25 -49 -21 -105q1 -19 6 -37t12.5 -35t17.5 -32q24 -35 60 -57q-13 -29 -33 -61l-6 -9q-2 -3 -7.5 -10.5t-9 -12.5t-9.5 -12.5t-11 -13t-11 -12t-12 -10.5t-12.5 -8t-13 -6t-12.5 -2h-1q-10 0 -18 2.5
t-21 8.5q-14 7 -22.5 10.5t-26.5 7t-38 3.5h-1q-42 0 -88 -21l-13 -6q-5 -2 -12 -3.5t-14 -1.5h-1q-27 0 -51.5 25t-50.5 65q-60 95 -70 198q-9 97 27 154q12 19 27.5 34.5t33.5 26.5q11 7 22.5 11.5t23 7t23.5 2.5q24 0 67 -16q12 -4 18.5 -6t17 -5t20 -4.5t19.5 -1.5
q27 0 70 16q14 6 22.5 9t22.5 5.5t28 2.5zM667 504q-36 0 -78.5 -16.5t-63.5 -16.5q-20 0 -43.5 8.5t-49 16.5t-50.5 8q-14 0 -28.5 -3t-28.5 -8.5t-28 -14t-26.5 -19t-24 -24t-20.5 -28.5q-28 -43 -33.5 -106.5t14 -138t61.5 -141.5q30 -47 61 -76t68 -29h1q11 0 21.5 2.5
t18 6t17.5 7.5t19 7.5t22.5 6t29.5 2.5h1q27 0 48.5 -8t39.5 -16t37 -8h1q37 0 68 31t63 80q24 39 48 93q-37 15 -63 44t-35.5 65t-6.5 73t25 70.5t58 53.5q-28 37 -66 57.5t-77 20.5zM620 643q-2 -11 -5.5 -21t-8 -18.5t-8.5 -14t-7 -10.5q-23 -31 -58 -43q2 10 5 19
q5 14 11.5 25.5t13.5 20.5q22 27 57 42zM652 684q-19 -1 -40.5 -9.5t-40.5 -22.5t-33 -31q-48 -60 -37 -122h3q21 0 42.5 8t39 21.5t30.5 30.5q20 27 30.5 59.5t5.5 65.5z" />
    <glyph glyph-name="uniE670" unicode="&#xe670;" 
d="M964 301q0 -91 -35.5 -174t-96 -143.5t-143.5 -96t-174 -35.5t-174 35.5t-143 96t-96 143.5t-36 174t36 174t96 143.5t143 96t174 35.5t174 -35.5t143.5 -96t96 -143.5t35.5 -174zM816 516q-12 12 -30 12t-30 -12l-17 -16l60 -59l17 17q12 12 12 29t-12 29zM785 427
l-60 59l-96 -94v1q0 10 -3.5 19t-10.5 15.5t-16 10t-19 3.5h-223q-10 0 -19.5 -3.5t-16 -10t-10.5 -15.5t-4 -19v-271q0 -20 14.5 -34t35.5 -14h223q20 0 34.5 14t14.5 34v153zM598 122q0 -4 -1.5 -7t-4 -5.5t-5.5 -3.5t-7 -1h-223q-8 0 -13 5t-5 12v271q0 3 1 5.5t2.5 4.5
t3.5 4t5 2.5t6 0.5h223q7 0 12.5 -5t5.5 -12v-31l-70 -68l60 -59l10 9v-122zM490 176l89 52l-59 57l-2 -2l-52 -84zM480 171l-20 19l-29 -47z" />
    <glyph glyph-name="uniE682" unicode="&#xe682;" 
d="M357 212q-6 -1 -12 -3t-10.5 -5.5t-8.5 -8t-7 -9t-4.5 -10t-1.5 -10.5q0 -17 13.5 -26.5t33 -7t33 15t13.5 28.5q0 27 -27 34q-11 3 -22 2zM423 230q-5 -3 -7 -8t-2 -10t3 -8q3 -6 10 -6.5t13.5 4t8.5 12.5t-1.5 14t-10.5 6.5t-14 -4.5zM512 812q-83 0 -161.5 -26
t-141 -73.5t-110 -110t-73.5 -141t-26 -161.5q0 -104 40.5 -199t109 -163.5t163.5 -109t199 -40.5t199 40.5t163.5 109t109 163.5t40.5 199t-40.5 199t-109 163.5t-163.5 109t-199 40.5zM792 171q-27 -57 -92.5 -98t-141.5 -57.5t-147 -11.5q-43 3 -81.5 10.5t-81 23.5
t-73.5 38t-53.5 58.5t-27.5 81.5v8q0 6 2 23.5t7.5 35.5t18.5 45t33 53q4 6 11.5 15.5t31 36t47.5 48.5t59 45.5t68 34.5t58 11.5t38.5 -6.5t21.5 -20.5t10 -25.5t2 -26q-1 -5 -2.5 -12t-2 -10.5t-1 -8.5t0 -7t2.5 -4t5.5 -2t9.5 0.5t14 3.5q5 2 13 5.5t30.5 10t42 9
t41.5 -1.5t35 -17q11 -11 15.5 -24t3.5 -24.5t-3.5 -21t-6.5 -15.5l-3 -6l-1 -1q-1 -2 -2 -5.5t0 -6t6 -6t14 -4.5q12 -3 26.5 -9.5t31.5 -20.5t27.5 -33t10 -48.5t-16.5 -63.5zM679 503q-10 0 -16.5 6.5t-6.5 16t6.5 16t16.5 6.5q3 0 8 1t19 0.5t27 -3t28 -11t25 -21.5
t15 -36.5t2 -54.5l-1 -3q0 -4 -2 -7.5t-5 -6t-7 -4t-8 -1.5q-6 0 -11 3t-8.5 8.5t-3.5 11.5q1 0 2 10.5t0 23.5t-8.5 26.5t-24.5 18.5t-47 0zM916 428q-1 -18 -2.5 -29.5t-5.5 -16t-6 -6t-9 -0.5t-8 1q-17 0 -25 3.5t-8 16.5q0 15 7 25q14 50 -11 105q-14 24 -34.5 41.5
t-40.5 24.5t-39.5 11.5t-31 3t-16.5 -1.5q-4 -1 -8 -2.5t-8 -2.5t-7 -1.5t-5 -0.5l-2 -1q-14 0 -23.5 9.5t-9.5 23.5q0 11 7 19.5t17 11.5h1l3 1q3 0 23 9.5t44 15.5t46 0q46 -10 90 -47.5t66.5 -92.5t-3.5 -120h-1zM422 373q-124 -5 -197 -70q-50 -46 -51 -101
q0 -68 72.5 -113t175.5 -40q102 4 175 59t73 124q0 67 -72 106.5t-176 34.5zM515 143q-33 -43 -88 -55t-117 19q-8 4 -14.5 9.5t-10 11.5t-6.5 11.5t-4 11t-1.5 9.5t-0.5 6v2q-1 2 -1 5v11q0 9 1.5 18t5 21t8.5 23t14.5 22.5t22 20t30.5 15.5t40 9q40 5 70 -6t45 -31
t21 -44.5t2 -48t-17 -40.5z" />
    <glyph glyph-name="uniE697" unicode="&#xe697;" 
d="M534 733q47 0 87 -9.5t69 -25.5t52.5 -37t38.5 -44t26.5 -46t17.5 -43.5t9.5 -37t4.5 -25.5v-10q20 -26 25 -53.5t1 -42.5l-5 -15q40 -63 59 -115t18.5 -83t-10.5 -53t-21 -30.5t-21 -10.5q-11 -2 -23.5 5t-19 14t-6.5 8q-8 -32 -29 -49q21 -9 35 -21t19 -21.5t7 -17.5
t1 -13l-1 -4q0 -3 -1.5 -7.5t-9 -16.5t-19.5 -21.5t-37 -18t-57.5 -11t-84.5 3.5t-114 23l-27 5q-60 -22 -111 -31.5t-84 -8t-59 9t-40 19t-23 22t-12 18.5l-3 8q0 2 -0.5 6t0.5 15.5t5 21.5t14.5 21.5t26.5 17.5q-10 6 -18 14.5t-13 16.5t-8.5 16t-4.5 12l-2 4q-1 -2 -3 -5
t-9.5 -11t-15 -11.5t-19 -7t-22.5 3.5q-8 4 -15 16t-11 30t-4 40t7 48.5t19.5 52.5t35.5 53.5t53 51.5q-1 2 -2 7t-2 19t0.5 26.5t9.5 28.5t21 27l8 47q33 139 147 194q64 31 150 31zM275 446q-18 -16 -27 -33t-8.5 -30t3 -24t6.5 -17l4 -6q-111 -69 -118 -190q-1 -23 1 -38
q23 11 39 44q5 9 10.5 12t11 0.5t10 -6.5t7.5 -8l2 -3q1 -3 2.5 -8.5t6.5 -20t11.5 -27t18 -27t24.5 -22.5q21 -15 20.5 -25.5t-11.5 -16.5l-11 -6q-2 0 -5.5 -0.5t-12 -2.5t-15 -5.5t-11.5 -11t-4 -17.5q2 -8 15.5 -17t35.5 -16t50.5 -10t58 -0.5t60.5 13t55 29.5l54 -7
q50 -17 95 -23.5t74.5 -4t53 9.5t34 14t12.5 11q3 5 -5 13.5t-22 17t-29 14.5q-47 20 -11 43q7 5 13.5 12t12 17.5t8.5 17t9.5 22t8.5 20.5q7 16 17 20t16.5 -1t8.5 -11q1 -4 7.5 -15t11.5 -20l6 -9q1 1 2 2.5t4 7.5t4.5 13t2.5 18.5t0 25t-6 32.5t-13 39.5t-22.5 47
t-33.5 55.5q1 2 2.5 6t3.5 16t1.5 23t-7 26t-18.5 27q0 5 -1 14.5t-7.5 35.5t-16 50t-30.5 53t-48 50t-70.5 35.5t-96.5 14.5t-95.5 -13.5t-68.5 -34t-44.5 -48.5t-27 -51t-13.5 -48.5t-5 -33.5v-14z" />
    <glyph glyph-name="uniE770" unicode="&#xe770;" 
d="M702 337q0 105 -80.5 180t-192 76t-193.5 -76t-80 -180.5t79.5 -181t193.5 -74.5t192.5 74.5t80.5 181.5zM1015 -139q0 -30 -24 -51.5t-55 -21.5q-33 0 -55 22l-208 195q-109 -71 -244 -71q-87 0 -167 32t-136.5 86t-91.5 128t-34 157t34 155.5t92 129t136.5 86t167 31.5
t166 -31.5t137.5 -86t91.5 -129t34.5 -155.5q0 -126 -76 -228l209 -196q23 -22 23 -52z" />
    <glyph glyph-name="uF0001" unicode="&#xf0001;" 
d="M1024 208l-512 397l-512 -397v162l512 397l512 -397v-162zM896 222v-384h-256v256h-256v-256h-256v384l384 288z" />
    <glyph glyph-name="uF0004" unicode="&#xf0004;" 
d="M516 -162l-3 1q-160 40 -261 172q-79 104 -117 260q-16 62 -23 123t-8 114q-2 62 1 104l1 12l13 2q118 10 215 45.5t124 54.5t39 31l11 10l10 -10q32 -32 84.5 -58t99.5 -40t99.5 -24t73 -12.5t31.5 -3.5l13 -1l1 -13q12 -239 -47 -413q-48 -140 -139 -231
q-65 -66 -146 -101q-41 -17 -69 -22h-3zM135 596q0 -29 -1 -69t7 -112.5t24 -136.5q82 -339 352 -409q4 1 9 2.5t12.5 3.5t18 6t21.5 8q31 14 66.5 37t69.5 58q95 96 139.5 250t36.5 356q-9 1 -18.5 2t-24.5 4l-30 4q-15 3 -33.5 7t-36.5 8q-38 9 -71.5 20t-62.5 24
q-32 14 -59 31t-47 35q-14 -11 -34.5 -24.5t-48.5 -27.5q-52 -25 -124 -46.5t-165 -30.5zM667 249q0 -13 9 -22.5t22 -9.5q7 0 12.5 2.5t10 6.5t6.5 10t2 13v123q0 13 -9 22t-22 9t-22 -9t-9 -22v-123zM556 476q0 6 4.5 10.5t10.5 4.5q2 0 4 -0.5t4 -1.5t3 -2.5t2.5 -3
t2 -3.5t0.5 -4q0 -6 -4.5 -10.5t-11.5 -4.5q-2 0 -4.5 0.5t-4.5 2t-3.5 3.5t-2 4.5t-0.5 4.5zM437 476q0 6 4.5 10.5t11 4.5t11 -4.5t4.5 -10.5t-4.5 -10.5t-11.5 -4.5q-4 0 -7.5 2t-5.5 5.5t-2 7.5zM373 177q0 -10 7 -17t18 -7h27v-69q0 -13 9 -22.5t22 -9.5t22 9.5t9 22.5
v69h49v-69q0 -6 2 -12t6.5 -10.5t10 -7t12.5 -2.5q13 0 22 9.5t9 22.5v69h27q11 0 18 7t7 17v226h-277v-226zM649 422q-3 32 -22.5 57.5t-49.5 39.5l25 37q1 2 1 4t-1.5 3t-3.5 0.5t-3 -2.5l-27 -38q-29 11 -57 11q-10 0 -20 -1.5t-19.5 -4t-18.5 -5.5l-26 38q-2 2 -3.5 2.5
t-2.5 -0.5q-4 -2 -1 -7l25 -37q-12 -5 -22.5 -13t-19 -17t-15 -19.5t-10.5 -22.5t-5 -25h276zM292 249q0 -14 9 -23t22 -9q4 0 8 1t7.5 3t6.5 5t5 6.5t3 7.5t1 9v123q0 8 -4 15.5t-11 11.5t-16 4q-8 0 -15.5 -4t-11.5 -11t-4 -16v-123zM292 249z" />
    <glyph glyph-name="uF0009" unicode="&#xf0009;" 
d="M230 -199h564v102h-564v-102zM231 6h562v384h231l-530 409l-494 -409h231v-384z" />
    <glyph glyph-name="uF0053" unicode="&#xf0053;" 
d="M319 300q-87 -3 -143 -73h-72q-44 0 -74 23t-30 68q0 201 67 201q3 0 23 -12t52.5 -24t64.5 -12q36 0 71 13q-3 -21 -3 -38q0 -79 44 -146zM895 -64q0 -69 -39.5 -108.5t-104.5 -39.5h-470q-65 0 -104 39.5t-39 108.5q0 30 1.5 59t7.5 62.5t14.5 62t23 55.5t33.5 46.5
t46 30.5t60 11q5 0 23 -12t39.5 -27t57.5 -27.5t72.5 -12.5t72.5 12.5t57.5 27.5t39 27t23.5 12q33 0 60 -11t46 -30.5t33.5 -46.5t23 -55.5t14 -62t7.5 -62.5t2 -59zM344 665.5q0 -60.5 -40.5 -103.5t-97 -43t-97 43t-40.5 103.5t40.5 103.5t97 43t97 -43t40.5 -103.5z
M723 446q0 -91 -60.5 -155t-146 -64t-146 64t-60.5 155t60.5 155.5t146 64.5t146 -64.5t60.5 -155.5zM1033 318q0 -45 -30.5 -68t-74.5 -23h-72q-55 70 -142 73q43 67 43 146q0 17 -2 38q35 -13 71 -13q32 0 64 12t52.5 24t23.5 12q67 0 67 -201zM964 665.5
q0 -60.5 -40.5 -103.5t-97.5 -43t-97.5 43t-40.5 103.5t40.5 103.5t97.5 43t97.5 -43t40.5 -103.5z" />
    <glyph glyph-name="uF0067" unicode="&#xf0067;" 
d="M317 335l120 -239q4 10 11.5 28t34 71.5t55.5 105t74.5 119.5t93 124.5t109.5 111t125 87.5q-2 -26 -6.5 -67t-7 -68.5t-2 -63t8 -70.5t22.5 -70q-48 -11 -122.5 -74.5t-146.5 -147.5t-136 -172t-98 -153q-94 120 -198.5 207t-184.5 117z" />
  </font>
</defs>
</svg>
